<?xml version="1.0" standalone="no"?>
<!DOCTYPE svg PUBLIC "-//W3C//DTD SVG 20010904//EN"
 "http://www.w3.org/TR/2001/REC-SVG-20010904/DTD/svg10.dtd">
<svg version="1.0" xmlns="http://www.w3.org/2000/svg"
 width="260.000000pt" height="260.000000pt" viewBox="0 0 260.000000 260.000000"
 preserveAspectRatio="xMidYMid meet">
<metadata>
Created by potrace 1.14, written by Peter Selinger 2001-2017
</metadata>
<g transform="translate(0.000000,260.000000) scale(0.100000,-0.100000)"
fill="#000000" stroke="none">
<path d="M1860 2392 c-44 -2 -67 -8 -73 -18 -5 -8 -14 -11 -20 -8 -7 4 -9 4
-5 -1 11 -11 -12 -36 -25 -28 -6 3 -7 1 -3 -6 4 -6 1 -13 -6 -16 -10 -4 -13
-28 -12 -93 2 -115 1 -111 25 -107 12 3 19 2 16 -1 -11 -11 42 -51 64 -49 13
1 30 -2 37 -8 8 -6 12 -6 12 2 0 7 11 9 27 7 19 -4 31 0 40 15 8 10 19 17 24
14 5 -4 9 1 9 9 0 9 5 16 11 16 5 0 7 5 4 10 -3 6 1 10 11 10 13 0 16 7 11 34
-4 25 -1 36 9 40 13 5 12 10 -3 33 -11 17 -13 24 -5 19 11 -7 12 -4 4 10 -5
11 -7 25 -4 33 3 8 0 11 -7 7 -6 -4 -11 0 -11 10 0 10 -3 15 -6 11 -6 -6 -47
31 -55 49 -2 5 -33 8 -69 6z"/>
<path d="M710 1695 c0 -6 -33 -9 -82 -8 -101 3 -118 -1 -111 -27 3 -11 -2 -31
-11 -45 -16 -24 -16 -25 9 -25 26 0 27 -1 29 -65 1 -29 5 -39 15 -37 8 2 21 0
29 -3 13 -5 12 -8 -3 -19 -21 -15 -13 -35 12 -32 26 4 42 -33 26 -63 -10 -22
-10 -27 8 -39 16 -11 17 -17 8 -28 -8 -10 -8 -14 0 -14 6 0 10 -5 9 -11 -2 -6
3 -14 11 -17 8 -2 11 0 7 6 -3 5 1 12 9 16 11 4 15 -2 15 -25 0 -19 4 -28 11
-23 7 4 9 -1 7 -12 -2 -11 -11 -18 -19 -16 -8 2 -5 -5 8 -17 14 -13 20 -27 16
-38 -4 -11 -3 -14 5 -9 7 4 12 2 12 -4 0 -6 4 -9 9 -6 5 3 14 -1 21 -9 10 -12
10 -15 -3 -15 -9 0 -19 -5 -23 -12 -5 -7 -3 -8 7 -3 12 8 12 6 0 -8 -7 -9 -11
-17 -8 -17 3 0 13 -3 22 -6 9 -4 15 -2 13 4 -2 5 2 10 7 10 6 1 9 -6 9 -14 -1
-8 2 -14 6 -14 12 0 22 -33 11 -39 -16 -10 -21 -71 -6 -71 7 0 16 6 19 13 5 9
7 9 12 0 3 -7 5 -15 4 -19 -1 -4 4 -10 10 -14 7 -4 13 -19 13 -33 1 -14 5 -23
8 -21 4 2 12 -3 19 -11 11 -14 7 -19 -12 -16 -5 0 -8 -6 -8 -14 0 -9 10 -15
26 -15 16 0 24 -5 21 -12 -2 -7 -9 -12 -15 -11 -5 1 -9 -5 -7 -15 2 -9 4 -22
4 -29 1 -6 9 -10 18 -9 26 4 50 -32 49 -73 -1 -35 22 -71 44 -71 5 0 9 -3 9
-7 -4 -22 2 -53 9 -53 5 0 14 11 22 24 7 14 24 27 37 31 42 10 54 30 52 84 -2
27 -5 50 -8 49 -20 -2 -19 5 5 27 17 16 27 36 28 55 1 17 6 29 11 28 6 -2 9
-6 8 -10 -4 -12 25 -10 32 2 3 6 1 10 -6 10 -8 0 -7 5 2 17 16 19 16 23 -3 34
-10 7 -10 9 0 9 7 0 11 4 8 9 -8 13 4 42 15 35 5 -3 7 -9 5 -13 -3 -4 1 -8 9
-8 8 0 15 7 15 14 0 8 -4 11 -10 8 -10 -6 -14 7 -10 34 2 17 25 41 39 41 7 0
9 11 7 25 -3 15 0 25 7 25 8 0 8 3 -1 9 -8 4 -13 12 -12 17 2 16 44 55 55 51
12 -5 36 18 28 27 -4 3 2 14 11 25 17 18 17 19 -2 25 -14 5 -18 13 -15 26 3
11 9 20 13 20 4 0 11 15 15 33 6 32 7 32 16 8 8 -20 12 -22 22 -11 9 10 9 13
0 17 -15 5 -17 39 -4 48 6 3 14 -3 20 -12 12 -21 12 -20 16 29 2 21 -1 41 -7
44 -7 5 -8 2 -3 -7 6 -11 5 -12 -5 -2 -11 10 -8 17 15 40 16 15 26 24 23 18
-3 -5 0 -16 8 -23 8 -7 14 -9 15 -5 0 4 2 18 5 30 2 14 -1 22 -7 20 -18 -3
-21 20 -4 27 11 4 14 2 9 -7 -4 -6 1 -5 10 4 10 9 18 23 20 32 1 9 11 24 22
34 28 26 28 42 0 37 -15 -2 -23 1 -23 11 0 8 6 15 13 15 7 0 11 8 9 18 -2 9
-4 21 -4 25 -1 5 -24 7 -51 5 -28 -1 -52 2 -54 7 -3 6 -5 5 -5 -1 -1 -11 -53
-10 -72 1 -5 4 -9 2 -9 -3 0 -10 -30 -9 -48 2 -6 4 -12 3 -12 -2 0 -6 -9 -8
-20 -5 -14 4 -20 0 -20 -11 0 -9 -4 -16 -10 -16 -5 0 -10 7 -10 15 0 8 -4 15
-10 15 -9 0 -12 -8 -9 -26 0 -4 -5 -10 -12 -15 -10 -6 -8 -12 9 -27 22 -19 31
-39 12 -27 -5 3 -10 2 -10 -4 0 -6 -6 -8 -14 -5 -10 4 -14 -1 -13 -14 0 -12 4
-20 7 -19 6 2 10 -8 10 -27 0 -8 -9 -18 -20 -21 -11 -4 -17 -11 -14 -17 4 -7
2 -8 -4 -4 -7 4 -12 14 -12 22 0 8 -4 12 -10 9 -5 -3 -10 -19 -10 -35 0 -15
-5 -30 -11 -32 -6 -2 -12 -32 -13 -68 -2 -62 -4 -65 -29 -68 -15 -2 -27 -10
-27 -17 0 -8 -10 -19 -22 -26 -18 -9 -20 -9 -15 4 7 19 -14 17 -39 -3 -10 -8
-15 -10 -11 -3 4 6 3 15 -3 18 -8 5 -7 11 1 21 8 10 8 14 0 14 -6 0 -11 7 -11
16 0 8 -4 12 -10 9 -6 -3 -7 1 -4 9 3 9 10 14 14 11 5 -3 11 -1 14 4 4 5 2 12
-4 16 -6 4 -8 11 -5 16 6 9 -8 13 -32 10 -7 -1 -13 5 -13 14 0 9 4 14 9 11 5
-3 11 8 13 24 5 33 -8 39 -28 13 -15 -20 -15 -20 -18 62 -1 37 -5 50 -16 50
-8 0 -20 5 -26 10 -9 7 -6 13 10 22 11 7 16 12 9 13 -7 0 -10 7 -7 15 7 17
-11 21 -21 5 -9 -15 -26 -1 -23 18 2 14 -5 17 -42 17 -25 0 -48 5 -52 10 -5 7
-8 7 -8 0z"/>
<path d="M1850 1693 c0 -4 -22 -7 -50 -6 -28 0 -53 -4 -57 -10 -8 -13 -8 -109
0 -130 4 -10 3 -17 -1 -17 -9 0 -7 -135 3 -149 3 -6 2 -11 -2 -11 -10 0 -8
-134 2 -149 3 -6 2 -11 -2 -11 -10 0 -8 -134 2 -149 3 -6 2 -11 -2 -11 -9 0
-8 -93 1 -109 4 -5 2 -13 -4 -16 -8 -5 -8 -11 -1 -19 6 -7 8 -16 5 -19 -11
-11 -11 -77 0 -77 6 0 4 -5 -4 -10 -11 -7 -11 -10 -2 -10 7 0 10 -5 7 -10 -9
-15 -10 -104 -2 -117 4 -6 2 -13 -4 -15 -7 -2 -7 -12 0 -31 6 -16 7 -26 2 -23
-5 4 -7 -3 -4 -13 5 -18 43 -37 43 -22 0 9 31 8 48 -3 7 -4 12 -2 12 4 0 6 5
8 12 4 17 -11 48 -12 48 -3 0 4 14 4 30 -1 17 -5 30 -5 30 0 0 5 6 7 14 4 9
-4 13 2 11 20 -2 17 2 26 11 26 17 0 19 17 2 23 -10 3 -13 118 -13 529 l0 526
-27 -2 c-15 -1 -30 3 -32 8 -3 7 -7 8 -13 1 -10 -12 -33 -13 -50 -2 -7 5 -13
5 -13 0z"/>
<path d="M1420 1201 c0 -17 18 -21 24 -6 3 9 0 15 -9 15 -8 0 -15 -4 -15 -9z"/>
<path d="M810 901 c0 -17 18 -21 24 -6 3 9 0 15 -9 15 -8 0 -15 -4 -15 -9z"/>
</g>
</svg>
